<?xml version="1.0" encoding="utf-8"?>
<!-- Generator: Adobe Illustrator 24.0.2, SVG Export Plug-In . SVG Version: 6.00 Build 0)  -->
<svg version="1.1" id="Capa_1" xmlns="http://www.w3.org/2000/svg" xmlns:xlink="http://www.w3.org/1999/xlink" x="0px" y="0px"
	 viewBox="0 0 792 612" style="enable-background:new 0 0 792 612;" xml:space="preserve">
<style type="text/css">
	.st0{fill:#FFFFFF;stroke:#1D1D1B;}
</style>
<path class="st0" d="M382.59,304.32c0,5.71,6.47,5.88,6.47,5.88l21.06-0.06c0,0,0,15.29,0,21c0,5.71,5.41,6.76,5.41,6.76
	c5.94-0.18,6.71-6.59,6.71-6.59l-0.41-21h18.53c5.88-1,6.35-5.18,6.35-5.18c0.12-6-6.88-6.59-6.88-6.59h-17.65l-0.47-19.53
	c-0.53-4.76-6.35-4.94-6.35-4.94c-5.29,0-6.53,4.65-6.53,4.65v19.82h-19.35C389.47,298.56,382.59,298.44,382.59,304.32z"/>
</svg>
